<?xml version="1.0" standalone="no"?>
<!DOCTYPE svg PUBLIC "-//W3C//DTD SVG 20010904//EN"
 "http://www.w3.org/TR/2001/REC-SVG-20010904/DTD/svg10.dtd">
<svg version="1.0" xmlns="http://www.w3.org/2000/svg"
 width="300.000000pt" height="300.000000pt" viewBox="0 0 300.000000 300.000000"
 preserveAspectRatio="xMidYMid meet">
<metadata>
Created by potrace 1.11, written by Peter Selinger 2001-2013
</metadata>
<g transform="translate(0.000000,300.000000) scale(0.100000,-0.100000)"
fill="#000000" stroke="none">
<path d="M1175 2309 c-170 -99 -313 -185 -317 -192 -4 -7 -8 -54 -8 -104 0
-51 -2 -93 -4 -93 -2 0 -36 18 -75 41 -61 35 -73 39 -93 28 -13 -6 -159 -90
-326 -186 l-302 -175 2 -376 3 -377 315 -182 c173 -100 321 -183 327 -183 17
0 635 357 645 373 4 7 8 54 8 105 0 50 2 92 4 92 2 0 36 -18 75 -41 l71 -41
75 42 75 41 0 -93 c0 -51 4 -98 8 -105 10 -16 628 -373 645 -373 6 0 154 83
327 183 l315 182 3 377 2 376 -302 175 c-167 96 -313 180 -326 186 -20 11 -32
7 -93 -28 -39 -23 -72 -41 -75 -41 -2 0 -5 46 -6 102 l-3 103 -315 182 c-173
101 -322 182 -330 182 -8 0 -154 -81 -325 -180z m605 -51 c154 -88 280 -164
280 -168 0 -9 -552 -326 -563 -322 -18 6 -557 317 -557 322 0 4 538 321 558
329 1 1 128 -72 282 -161z m-292 -847 l2 -330 -70 40 -70 41 0 228 0 229 -32
24 c-18 13 -115 71 -215 128 l-183 104 0 97 0 96 283 -163 282 -164 3 -330z
m592 557 l0 -93 -183 -104 c-100 -57 -197 -115 -214 -128 l-33 -24 0 -229 0
-229 -61 -36 c-33 -19 -62 -35 -65 -35 -2 0 -3 147 -2 327 l3 328 270 157
c149 86 273 157 278 157 4 1 7 -41 7 -91z"/>
</g>
</svg>
